ffmpeg started on 2025-05-12 at 18:12:29
Report written to "D:\Convert\FFMetrics\reports\ssim_report-6.txt"
Log level: 32
Command line:
ffmpeg -hide_banner -nostdin -i "G:\\\xc0\xed\xe8\xec\xe5\\\xce\xed\xe3\xee\xe8\xed\xe3\xe8\\!_35_\xcb\xe5\xf2\xee_2024\\DreamCast\\\xce\xf2\xf0\xff\xe4 \xf1\xe0\xec\xee\xf3\xe1\xe8\xe9\xf6 \xe8\xe7 \xe4\xf0\xf3\xe3\xee\xe3\xee \xec\xe8\xf0\xe0\\[DC] Isekai Suicide Squad - 03_Telegram_HEVC.mkv" -i "G:\\\xc0\xed\xe8\xec\xe5\\\xce\xed\xe3\xee\xe8\xed\xe3\xe8\\!_35_\xcb\xe5\xf2\xee_2024\\DreamCast\\\xce\xf2\xf0\xff\xe4 \xf1\xe0\xec\xee\xf3\xe1\xe8\xe9\xf6 \xe8\xe7 \xe4\xf0\xf3\xe3\xee\xe3\xee \xec\xe8\xf0\xe0\\[DC] Isekai Suicide Squad - 03_Telegram.mp4" -lavfi "[0:v]settb=AVTB,setpts=PTS-STARTPTS,format=pix_fmts=yuv420p10,fps=24000/1001,scale=1920:1080:flags=bicubic[main];[1:v]settb=AVTB,setpts=PTS-STARTPTS,format=pix_fmts=yuv420p,fps=24000/1001,scale=1920:1080:flags=bicubic[ref];[main][ref]ssim=eof_action=endall:stats_file='D\\:/Convert/FFMetrics/logs/ssim_logfile-6.txt'" -f null -
Input #0, matroska,webm, from 'G:\Аниме\Онгоинги\!_35_Лето_2024\DreamCast\Отряд самоубийц из другого мира\[DC] Isekai Suicide Squad - 03_Telegram_HEVC.mkv':
  Metadata:
    COMPATIBLE_BRANDS: isomiso2avc1mp41
    MAJOR_BRAND     : isom
    MINOR_VERSION   : 512
    ENCODER         : Lavf61.7.100
  Duration: 00:24:18.01, start: -0.021000, bitrate: 1463 kb/s
  Stream #0:0: Video: hevc (Main 10), yuv420p10le(tv, bt709, progressive), 1920x1080 [SAR 1:1 DAR 16:9], 23.98 fps, 23.98 tbr, 1k tbn (default)
      Metadata:
        HANDLER_NAME    : VideoHandler
        VENDOR_ID       : [0][0][0][0]
        ENCODER         : Lavc61.19.100 libx265
        BPS             : 1267044
        DURATION        : 00:24:17.914708333
        NUMBER_OF_FRAMES: 34955
        NUMBER_OF_BYTES : 230905321
        _STATISTICS_WRITING_APP: mkvpropedit v66.0.0 ('Josie') 64-bit
        _STATISTICS_WRITING_DATE_UTC: 2025-05-09 13:08:28
        _STATISTICS_TAGS: BPS DURATION NUMBER_OF_FRAMES NUMBER_OF_BYTES
  Stream #0:1: Audio: aac (LC), 48000 Hz, stereo, fltp (default)
      Metadata:
        HANDLER_NAME    : SoundHandler
        VENDOR_ID       : [0][0][0][0]
        ENCODER         : Lavc61.19.100 aac
        BPS             : 192218
        DURATION        : 00:24:18.005000000
        NUMBER_OF_FRAMES: 68345
        NUMBER_OF_BYTES : 35031931
        _STATISTICS_WRITING_APP: mkvpropedit v66.0.0 ('Josie') 64-bit
        _STATISTICS_WRITING_DATE_UTC: 2025-05-09 13:08:28
        _STATISTICS_TAGS: BPS DURATION NUMBER_OF_FRAMES NUMBER_OF_BYTES
Input #1, mov,mp4,m4a,3gp,3g2,mj2, from 'G:\Аниме\Онгоинги\!_35_Лето_2024\DreamCast\Отряд самоубийц из другого мира\[DC] Isekai Suicide Squad - 03_Telegram.mp4':
  Metadata:
    major_brand     : isom
    minor_version   : 512
    compatible_brands: isomiso2avc1mp41
    encoder         : Lavf60.16.100
  Duration: 00:24:17.98, start: 0.000000, bitrate: 3971 kb/s
  Stream #1:0[0x1](und): Video: h264 (High) (avc1 / 0x31637661), yuv420p(tv, bt709, progressive), 1920x1080 [SAR 1:1 DAR 16:9], 3824 kb/s, 23.98 fps, 23.98 tbr, 24k tbn (default)
      Metadata:
        handler_name    : VideoHandler
        vendor_id       : [0][0][0][0]
        encoder         : Lavc60.31.102 h264_qsv
  Stream #1:1[0x2](und): Audio: aac (HE-AACv2) (mp4a / 0x6134706D), 48000 Hz, stereo, fltp, 144 kb/s (default)
      Metadata:
        handler_name    : SoundHandler
        vendor_id       : [0][0][0][0]
Stream mapping:
  Stream #0:0 (hevc) -> settb:default
  Stream #1:0 (h264) -> settb:default
  ssim:default -> Stream #0:0 (wrapped_avframe)
  Stream #0:1 -> #0:1 (aac (native) -> pcm_s16le (native))
Output #0, null, to 'pipe:':
  Metadata:
    COMPATIBLE_BRANDS: isomiso2avc1mp41
    MAJOR_BRAND     : isom
    MINOR_VERSION   : 512
    encoder         : Lavf61.7.100
  Stream #0:0: Video: wrapped_avframe, yuv420p10le(tv, bt709, progressive), 1920x1080 [SAR 1:1 DAR 16:9], q=2-31, 200 kb/s, 23.98 fps, 23.98 tbn
      Metadata:
        encoder         : Lavc61.19.100 wrapped_avframe
  Stream #0:1: Audio: pcm_s16le, 48000 Hz, stereo, s16, 1536 kb/s (default)
      Metadata:
        HANDLER_NAME    : SoundHandler
        VENDOR_ID       : [0][0][0][0]
        _STATISTICS_TAGS: BPS DURATION NUMBER_OF_FRAMES NUMBER_OF_BYTES
        BPS             : 192218
        DURATION        : 00:24:18.005000000
        NUMBER_OF_FRAMES: 68345
        NUMBER_OF_BYTES : 35031931
        _STATISTICS_WRITING_APP: mkvpropedit v66.0.0 ('Josie') 64-bit
        _STATISTICS_WRITING_DATE_UTC: 2025-05-09 13:08:28
        encoder         : Lavc61.19.100 pcm_s16le
frame=  184 fps=0.0 q=-0.0 size=N/A time=00:00:07.67 bitrate=N/A speed=  15x    frame=  375 fps=363 q=-0.0 size=N/A time=00:00:15.64 bitrate=N/A speed=15.1x    frame=  602 fps=390 q=-0.0 size=N/A time=00:00:25.10 bitrate=N/A speed=16.3x    frame=  836 fps=405 q=-0.0 size=N/A time=00:00:34.86 bitrate=N/A speed=16.9x    frame= 1014 fps=394 q=-0.0 size=N/A time=00:00:42.29 bitrate=N/A speed=16.4x    frame= 1235 fps=399 q=-0.0 size=N/A time=00:00:51.50 bitrate=N/A speed=16.6x    frame= 1441 fps=400 q=-0.0 size=N/A time=00:01:00.10 bitrate=N/A speed=16.7x    frame= 1651 fps=400 q=-0.0 size=N/A time=00:01:08.86 bitrate=N/A speed=16.7x    frame= 1885 fps=407 q=-0.0 size=N/A time=00:01:18.62 bitrate=N/A speed=  17x    frame= 2115 fps=411 q=-0.0 size=N/A time=00:01:28.21 bitrate=N/A speed=17.1x    frame= 2305 fps=407 q=-0.0 size=N/A time=00:01:36.13 bitrate=N/A speed=  17x    frame= 2491 fps=403 q=-0.0 size=N/A time=00:01:43.89 bitrate=N/A speed=16.8x    frame= 2730 fps=407 q=-0.0 size=N/A time=00:01:53.86 bitrate=N/A speed=  17x    frame= 2958 fps=410 q=-0.0 size=N/A time=00:02:03.37 bitrate=N/A speed=17.1x    frame= 3183 fps=411 q=-0.0 size=N/A time=00:02:12.75 bitrate=N/A speed=17.2x    frame= 3414 fps=414 q=-0.0 size=N/A time=00:02:22.39 bitrate=N/A speed=17.3x    frame= 3621 fps=413 q=-0.0 size=N/A time=00:02:31.02 bitrate=N/A speed=17.2x    frame= 3863 fps=417 q=-0.0 size=N/A time=00:02:41.11 bitrate=N/A speed=17.4x    frame= 4102 fps=419 q=-0.0 size=N/A time=00:02:51.08 bitrate=N/A speed=17.5x    frame= 4348 fps=422 q=-0.0 size=N/A time=00:03:01.34 bitrate=N/A speed=17.6x    frame= 4543 fps=419 q=-0.0 size=N/A time=00:03:09.48 bitrate=N/A speed=17.5x    frame= 4749 fps=419 q=-0.0 size=N/A time=00:03:18.07 bitrate=N/A speed=17.5x    frame= 4954 fps=418 q=-0.0 size=N/A time=00:03:26.62 bitrate=N/A speed=17.4x    frame= 5185 fps=419 q=-0.0 size=N/A time=00:03:36.25 bitrate=N/A speed=17.5x    frame= 5422 fps=421 q=-0.0 size=N/A time=00:03:46.14 bitrate=N/A speed=17.6x    frame= 5662 fps=422 q=-0.0 size=N/A time=00:03:56.15 bitrate=N/A speed=17.6x    frame= 5879 fps=422 q=-0.0 size=N/A time=00:04:05.20 bitrate=N/A speed=17.6x    frame= 6116 fps=424 q=-0.0 size=N/A time=00:04:15.08 bitrate=N/A speed=17.7x    frame= 6335 fps=424 q=-0.0 size=N/A time=00:04:24.22 bitrate=N/A speed=17.7x    frame= 6586 fps=426 q=-0.0 size=N/A time=00:04:34.69 bitrate=N/A speed=17.8x    frame= 6804 fps=426 q=-0.0 size=N/A time=00:04:43.78 bitrate=N/A speed=17.8x    frame= 7025 fps=426 q=-0.0 size=N/A time=00:04:53.00 bitrate=N/A speed=17.8x    frame= 7215 fps=424 q=-0.0 size=N/A time=00:05:00.92 bitrate=N/A speed=17.7x    frame= 7435 fps=424 q=-0.0 size=N/A time=00:05:10.10 bitrate=N/A speed=17.7x    frame= 7664 fps=425 q=-0.0 size=N/A time=00:05:19.65 bitrate=N/A speed=17.7x    frame= 7920 fps=427 q=-0.0 size=N/A time=00:05:30.33 bitrate=N/A speed=17.8x    frame= 8146 fps=427 q=-0.0 size=N/A time=00:05:39.75 bitrate=N/A speed=17.8x    frame= 8386 fps=428 q=-0.0 size=N/A time=00:05:49.76 bitrate=N/A speed=17.8x    frame= 8626 fps=429 q=-0.0 size=N/A time=00:05:59.77 bitrate=N/A speed=17.9x    frame= 8891 fps=431 q=-0.0 size=N/A time=00:06:10.82 bitrate=N/A speed=  18x    frame= 9138 fps=432 q=-0.0 size=N/A time=00:06:21.13 bitrate=N/A speed=  18x    frame= 9376 fps=433 q=-0.0 size=N/A time=00:06:31.05 bitrate=N/A speed=18.1x    frame= 9623 fps=434 q=-0.0 size=N/A time=00:06:41.35 bitrate=N/A speed=18.1x    frame= 9868 fps=435 q=-0.0 size=N/A time=00:06:51.57 bitrate=N/A speed=18.1x    frame=10092 fps=435 q=-0.0 size=N/A time=00:07:00.92 bitrate=N/A speed=18.1x    frame=10346 fps=436 q=-0.0 size=N/A time=00:07:11.51 bitrate=N/A speed=18.2x    frame=10565 fps=436 q=-0.0 size=N/A time=00:07:20.64 bitrate=N/A speed=18.2x    frame=10798 fps=436 q=-0.0 size=N/A time=00:07:30.36 bitrate=N/A speed=18.2x    frame=11018 fps=436 q=-0.0 size=N/A time=00:07:39.54 bitrate=N/A speed=18.2x    frame=11255 fps=436 q=-0.0 size=N/A time=00:07:49.42 bitrate=N/A speed=18.2x    frame=11483 fps=437 q=-0.0 size=N/A time=00:07:58.93 bitrate=N/A speed=18.2x    frame=11731 fps=437 q=-0.0 size=N/A time=00:08:09.28 bitrate=N/A speed=18.2x    frame=11957 fps=437 q=-0.0 size=N/A time=00:08:18.70 bitrate=N/A speed=18.2x    frame=12178 fps=437 q=-0.0 size=N/A time=00:08:27.92 bitrate=N/A speed=18.2x    frame=12410 fps=438 q=-0.0 size=N/A time=00:08:37.60 bitrate=N/A speed=18.2x    frame=12658 fps=438 q=-0.0 size=N/A time=00:08:47.94 bitrate=N/A speed=18.3x    frame=12921 fps=440 q=-0.0 size=N/A time=00:08:58.91 bitrate=N/A speed=18.3x    frame=13176 fps=440 q=-0.0 size=N/A time=00:09:09.54 bitrate=N/A speed=18.4x    frame=13420 fps=441 q=-0.0 size=N/A time=00:09:19.72 bitrate=N/A speed=18.4x    frame=13682 fps=442 q=-0.0 size=N/A time=00:09:30.65 bitrate=N/A speed=18.4x    frame=13922 fps=443 q=-0.0 size=N/A time=00:09:40.66 bitrate=N/A speed=18.5x    frame=14156 fps=443 q=-0.0 size=N/A time=00:09:50.42 bitrate=N/A speed=18.5x    frame=14377 fps=443 q=-0.0 size=N/A time=00:09:59.64 bitrate=N/A speed=18.5x    frame=14608 fps=442 q=-0.0 size=N/A time=00:10:09.27 bitrate=N/A speed=18.5x    frame=14857 fps=443 q=-0.0 size=N/A time=00:10:19.66 bitrate=N/A speed=18.5x    frame=15096 fps=443 q=-0.0 size=N/A time=00:10:29.62 bitrate=N/A speed=18.5x    frame=15347 fps=444 q=-0.0 size=N/A time=00:10:40.09 bitrate=N/A speed=18.5x    frame=15587 fps=444 q=-0.0 size=N/A time=00:10:50.10 bitrate=N/A speed=18.5x    frame=15833 fps=445 q=-0.0 size=N/A time=00:11:00.36 bitrate=N/A speed=18.6x    frame=16082 fps=445 q=-0.0 size=N/A time=00:11:10.75 bitrate=N/A speed=18.6x    frame=16306 fps=445 q=-0.0 size=N/A time=00:11:20.09 bitrate=N/A speed=18.6x    frame=16552 fps=446 q=-0.0 size=N/A time=00:11:30.35 bitrate=N/A speed=18.6x    frame=16792 fps=446 q=-0.0 size=N/A time=00:11:40.36 bitrate=N/A speed=18.6x    frame=17050 fps=447 q=-0.0 size=N/A time=00:11:51.12 bitrate=N/A speed=18.6x    frame=17296 fps=447 q=-0.0 size=N/A time=00:12:01.38 bitrate=N/A speed=18.6x    frame=17526 fps=447 q=-0.0 size=N/A time=00:12:10.98 bitrate=N/A speed=18.6x    frame=17782 fps=448 q=-0.0 size=N/A time=00:12:21.65 bitrate=N/A speed=18.7x    frame=18024 fps=448 q=-0.0 size=N/A time=00:12:31.75 bitrate=N/A speed=18.7x    frame=18262 fps=448 q=-0.0 size=N/A time=00:12:41.67 bitrate=N/A speed=18.7x    frame=18480 fps=448 q=-0.0 size=N/A time=00:12:50.77 bitrate=N/A speed=18.7x    frame=18619 fps=445 q=-0.0 size=N/A time=00:12:56.56 bitrate=N/A speed=18.6x    frame=18775 fps=444 q=-0.0 size=N/A time=00:13:03.07 bitrate=N/A speed=18.5x    frame=18951 fps=442 q=-0.0 size=N/A time=00:13:10.41 bitrate=N/A speed=18.5x    frame=19171 fps=442 q=-0.0 size=N/A time=00:13:19.59 bitrate=N/A speed=18.5x    frame=19395 fps=442 q=-0.0 size=N/A time=00:13:28.93 bitrate=N/A speed=18.4x    frame=19637 fps=443 q=-0.0 size=N/A time=00:13:39.02 bitrate=N/A speed=18.5x    frame=19861 fps=443 q=-0.0 size=N/A time=00:13:48.36 bitrate=N/A speed=18.5x    frame=20047 fps=442 q=-0.0 size=N/A time=00:13:56.12 bitrate=N/A speed=18.4x    frame=20268 fps=441 q=-0.0 size=N/A time=00:14:05.34 bitrate=N/A speed=18.4x    frame=20491 fps=441 q=-0.0 size=N/A time=00:14:14.64 bitrate=N/A speed=18.4x    frame=20704 fps=441 q=-0.0 size=N/A time=00:14:23.52 bitrate=N/A speed=18.4x    frame=20942 fps=441 q=-0.0 size=N/A time=00:14:33.45 bitrate=N/A speed=18.4x    frame=21146 fps=441 q=-0.0 size=N/A time=00:14:41.96 bitrate=N/A speed=18.4x    frame=21363 fps=441 q=-0.0 size=N/A time=00:14:51.01 bitrate=N/A speed=18.4x    frame=21588 fps=440 q=-0.0 size=N/A time=00:15:00.39 bitrate=N/A speed=18.4x    frame=21802 fps=440 q=-0.0 size=N/A time=00:15:09.32 bitrate=N/A speed=18.4x    frame=22040 fps=440 q=-0.0 size=N/A time=00:15:19.25 bitrate=N/A speed=18.4x    frame=22283 fps=441 q=-0.0 size=N/A time=00:15:29.38 bitrate=N/A speed=18.4x    frame=22499 fps=441 q=-0.0 size=N/A time=00:15:38.39 bitrate=N/A speed=18.4x    frame=22722 fps=440 q=-0.0 size=N/A time=00:15:47.69 bitrate=N/A speed=18.4x    frame=22959 fps=441 q=-0.0 size=N/A time=00:15:57.58 bitrate=N/A speed=18.4x    frame=23210 fps=441 q=-0.0 size=N/A time=00:16:08.05 bitrate=N/A speed=18.4x    frame=23458 fps=441 q=-0.0 size=N/A time=00:16:18.39 bitrate=N/A speed=18.4x    frame=23684 fps=441 q=-0.0 size=N/A time=00:16:27.82 bitrate=N/A speed=18.4x    frame=23890 fps=441 q=-0.0 size=N/A time=00:16:36.41 bitrate=N/A speed=18.4x    frame=24109 fps=441 q=-0.0 size=N/A time=00:16:45.54 bitrate=N/A speed=18.4x    frame=24338 fps=441 q=-0.0 size=N/A time=00:16:55.09 bitrate=N/A speed=18.4x    frame=24582 fps=441 q=-0.0 size=N/A time=00:17:05.27 bitrate=N/A speed=18.4x    frame=24815 fps=441 q=-0.0 size=N/A time=00:17:14.99 bitrate=N/A speed=18.4x    frame=25070 fps=442 q=-0.0 size=N/A time=00:17:25.62 bitrate=N/A speed=18.4x    frame=25286 fps=442 q=-0.0 size=N/A time=00:17:34.63 bitrate=N/A speed=18.4x    frame=25518 fps=442 q=-0.0 size=N/A time=00:17:44.31 bitrate=N/A speed=18.4x    frame=25731 fps=441 q=-0.0 size=N/A time=00:17:53.19 bitrate=N/A speed=18.4x    frame=25961 fps=441 q=-0.0 size=N/A time=00:18:02.79 bitrate=N/A speed=18.4x    frame=26206 fps=442 q=-0.0 size=N/A time=00:18:13.00 bitrate=N/A speed=18.4x    frame=26451 fps=442 q=-0.0 size=N/A time=00:18:23.22 bitrate=N/A speed=18.4x    frame=26682 fps=442 q=-0.0 size=N/A time=00:18:32.86 bitrate=N/A speed=18.4x    frame=26896 fps=442 q=-0.0 size=N/A time=00:18:41.78 bitrate=N/A speed=18.4x    frame=27150 fps=442 q=-0.0 size=N/A time=00:18:52.38 bitrate=N/A speed=18.4x    frame=27392 fps=443 q=-0.0 size=N/A time=00:19:02.47 bitrate=N/A speed=18.5x    frame=27608 fps=442 q=-0.0 size=N/A time=00:19:11.48 bitrate=N/A speed=18.4x    frame=27839 fps=442 q=-0.0 size=N/A time=00:19:21.11 bitrate=N/A speed=18.4x    frame=28080 fps=442 q=-0.0 size=N/A time=00:19:31.17 bitrate=N/A speed=18.5x    frame=28280 fps=442 q=-0.0 size=N/A time=00:19:39.51 bitrate=N/A speed=18.4x    frame=28506 fps=442 q=-0.0 size=N/A time=00:19:48.93 bitrate=N/A speed=18.4x    frame=28716 fps=442 q=-0.0 size=N/A time=00:19:57.69 bitrate=N/A speed=18.4x    frame=28902 fps=441 q=-0.0 size=N/A time=00:20:05.45 bitrate=N/A speed=18.4x    frame=29117 fps=441 q=-0.0 size=N/A time=00:20:14.42 bitrate=N/A speed=18.4x    frame=29298 fps=440 q=-0.0 size=N/A time=00:20:21.97 bitrate=N/A speed=18.4x    frame=29509 fps=440 q=-0.0 size=N/A time=00:20:30.77 bitrate=N/A speed=18.3x    frame=29735 fps=440 q=-0.0 size=N/A time=00:20:40.19 bitrate=N/A speed=18.3x    frame=29964 fps=440 q=-0.0 size=N/A time=00:20:49.74 bitrate=N/A speed=18.3x    frame=30198 fps=440 q=-0.0 size=N/A time=00:20:59.50 bitrate=N/A speed=18.4x    frame=30411 fps=440 q=-0.0 size=N/A time=00:21:08.39 bitrate=N/A speed=18.3x    frame=30626 fps=440 q=-0.0 size=N/A time=00:21:17.35 bitrate=N/A speed=18.3x    frame=30844 fps=439 q=-0.0 size=N/A time=00:21:26.45 bitrate=N/A speed=18.3x    frame=31077 fps=440 q=-0.0 size=N/A time=00:21:36.16 bitrate=N/A speed=18.3x    frame=31302 fps=440 q=-0.0 size=N/A time=00:21:45.55 bitrate=N/A speed=18.3x    frame=31519 fps=439 q=-0.0 size=N/A time=00:21:54.60 bitrate=N/A speed=18.3x    frame=31760 fps=440 q=-0.0 size=N/A time=00:22:04.65 bitrate=N/A speed=18.3x    frame=31984 fps=440 q=-0.0 size=N/A time=00:22:13.99 bitrate=N/A speed=18.3x    frame=32198 fps=439 q=-0.0 size=N/A time=00:22:22.92 bitrate=N/A speed=18.3x    frame=32419 fps=439 q=-0.0 size=N/A time=00:22:32.14 bitrate=N/A speed=18.3x    frame=32666 fps=440 q=-0.0 size=N/A time=00:22:42.44 bitrate=N/A speed=18.3x    frame=32834 fps=439 q=-0.0 size=N/A time=00:22:49.45 bitrate=N/A speed=18.3x    frame=33051 fps=439 q=-0.0 size=N/A time=00:22:58.50 bitrate=N/A speed=18.3x    frame=33242 fps=438 q=-0.0 size=N/A time=00:23:06.46 bitrate=N/A speed=18.3x    frame=33419 fps=438 q=-0.0 size=N/A time=00:23:13.85 bitrate=N/A speed=18.3x    frame=33599 fps=437 q=-0.0 size=N/A time=00:23:21.35 bitrate=N/A speed=18.2x    frame=33806 fps=437 q=-0.0 size=N/A time=00:23:29.99 bitrate=N/A speed=18.2x    frame=33982 fps=436 q=-0.0 size=N/A time=00:23:37.33 bitrate=N/A speed=18.2x    frame=34187 fps=436 q=-0.0 size=N/A time=00:23:45.88 bitrate=N/A speed=18.2x    frame=34345 fps=435 q=-0.0 size=N/A time=00:23:52.47 bitrate=N/A speed=18.1x    frame=34555 fps=435 q=-0.0 size=N/A time=00:24:01.23 bitrate=N/A speed=18.1x    frame=34776 fps=435 q=-0.0 size=N/A time=00:24:10.44 bitrate=N/A speed=18.1x    [Parsed_ssim_10 @ 00000220189a2140] SSIM Y:0.991541 (20.726829) U:0.993585 (21.928133) V:0.994063 (22.264574) All:0.992302 (21.136280)
[out#0/null @ 0000022017e00640] video:15020KiB audio:273380KiB subtitle:0KiB other streams:0KiB global headers:0KiB muxing overhead: unknown
frame=34955 fps=435 q=-0.0 Lsize=N/A time=00:24:17.91 bitrate=N/A speed=18.1x    
